<?xml version="1.0" encoding="UTF-8"?>
<svg id="Artwork" xmlns="http://www.w3.org/2000/svg" viewBox="0 0 126 126">
  <defs>
    <style>
      .cls-1 {
        fill: #fff;
      }

      .cls-2 {
        fill: #ed3a95;
        fill-rule: evenodd;
      }
    </style>
  </defs>
  <circle class="cls-1" cx="63" cy="63" r="63"/>
  <path class="cls-2" d="M120.6,63c0,8.016-1.692,16.012-4.941,23.341-3.06,6.898-7.479,13.172-12.942,18.374-5.121,4.878-11.142,8.793-17.676,11.499-6.097,2.526-12.622,3.991-19.215,4.316-6.12.299-12.281-.383-18.189-2.017-5.449-1.51-10.674-3.825-15.453-6.85-16.641-10.538-26.784-28.969-26.784-48.664,0-8.017,1.692-16.012,4.941-23.342C18.324,21.652,35.069,8.913,54.549,6.023c5.594-.83,11.309-.83,16.902,0,6.061.9,11.974,2.772,17.447,5.526,5.895,2.967,11.268,6.953,15.817,11.732,4.878,5.121,8.793,11.142,11.498,17.675,2.889,6.97,4.388,14.499,4.388,22.043ZM75.973,44.772c1.355,2.186,2.21,4.666,2.493,7.219.23,2.043.09,4.124-.405,6.121-.495,2.004-1.345,3.916-2.497,5.629-5.783,8.593-17.892,10.557-26.055,4.151-1.62-1.272-3.011-2.828-4.095-4.581-1.35-2.184-2.205-4.664-2.493-7.217-.225-2.044-.086-4.124.405-6.121.495-2.004,1.345-3.918,2.497-5.629,5.787-8.593,17.897-10.557,26.055-4.151,1.62,1.272,3.015,2.827,4.095,4.58ZM101.151,33.391c.657,1.059,1.165,2.217,1.444,3.431.572,2.465.094,5.436-2.524,6.481-.527.21-1.094.315-1.656.337-1.57.059-3.118-.498-4.45-1.291-3.375-2.004-6.449-6.316-6.003-10.404.365-3.346,3.123-4.755,6.232-3.99,2.916.717,5.409,2.925,6.957,5.435Z"/>
</svg>